<?xml version="1.0" encoding="UTF-8"?>
<svg version="1.1" xmlns="http://www.w3.org/2000/svg" width="420" height="420">
<path d="M0 0 C1.42098747 -0.00639748 1.42098747 -0.00639748 2.87068176 -0.01292419 C3.91885574 -0.01247101 4.96702972 -0.01201782 6.04696655 -0.0115509 C7.1446788 -0.01490952 8.24239105 -0.01826813 9.37336731 -0.02172852 C13.02938957 -0.03128212 16.68536615 -0.03318466 20.34140015 -0.03425598 C22.8823651 -0.03746849 25.42332987 -0.04083256 27.96429443 -0.04434204 C33.30940249 -0.05034639 38.65449349 -0.05222363 43.99960327 -0.05158997 C50.14382151 -0.05099297 56.28795086 -0.06146495 62.43214667 -0.07733363 C68.36466235 -0.09210105 74.29715158 -0.09557467 80.22968674 -0.09498024 C82.74043513 -0.09615376 85.2511843 -0.10053991 87.76192093 -0.10831261 C114.43063606 -0.18305909 142.63891501 1.36578198 163.61483765 20.13371277 C164.32640015 20.74215027 165.03796265 21.35058777 165.77108765 21.97746277 C181.60616045 36.51102274 187.95080672 57.26122212 189.61483765 78.13371277 C190.1273972 90.18013898 190.02117559 102.24590901 189.98488259 114.30062723 C189.9734149 119.01133587 189.97768716 123.72203589 189.97962952 128.43275452 C189.98050755 136.33522635 189.96953429 144.2376116 189.95101929 152.14006042 C189.92984463 161.2287509 189.92634796 170.3173149 189.93258125 179.40602505 C189.93830866 188.21382928 189.93259064 197.02158975 189.9214077 205.82938766 C189.91680769 209.5489929 189.9158676 213.26857098 189.91799355 216.98817825 C189.91990053 221.37970155 189.91159106 225.77109919 189.89593315 230.16259384 C189.89175167 231.75792673 189.89079732 233.35327253 189.89362335 234.9486084 C189.93754186 264.21657587 184.72417901 289.95624541 163.4234314 311.33293152 C140.92054759 331.25287562 110.5208942 331.45363178 82.27108765 331.36418152 C79.76429264 331.36298708 77.25749718 331.36253711 74.7507019 331.36279297 C69.53660216 331.36123972 64.32257221 331.35303213 59.10848999 331.33952332 C53.07955419 331.3241031 47.05070112 331.31853017 41.02174807 331.31925887 C35.19593178 331.31986783 29.37013693 331.31467266 23.54432678 331.30646706 C21.07225164 331.30327896 18.60017462 331.30131265 16.12809753 331.30057335 C12.69590994 331.29841928 9.2638046 331.28969961 5.83163452 331.27897644 C4.80530411 331.27942963 3.77897369 331.27988281 2.72154236 331.28034973 C1.793936 331.27608475 0.86632965 331.27181976 -0.08938599 331.26742554 C-0.89968513 331.26574969 -1.70998428 331.26407385 -2.54483795 331.26234722 C-4.38516235 331.13371277 -4.38516235 331.13371277 -5.38516235 330.13371277 C-5.48018652 327.63878889 -5.51073801 325.17165263 -5.49868774 322.67643738 C-5.49883377 321.89600571 -5.4989798 321.11557404 -5.49913025 320.31149292 C-5.49843094 317.71965297 -5.49063771 315.12788399 -5.4828186 312.53605652 C-5.48095449 310.74386637 -5.47953056 308.95167571 -5.47853088 307.15948486 C-5.47470519 302.43300479 -5.46487447 297.70655525 -5.4538269 292.98008728 C-5.44361389 288.16085727 -5.4390335 283.34162235 -5.43399048 278.52238464 C-5.42325225 269.05948057 -5.40617521 259.59659921 -5.38516235 250.13371277 C-6.4359582 250.13786084 -6.4359582 250.13786084 -7.50798225 250.1420927 C-24.55931062 250.20836728 -41.61060623 250.25800051 -58.66203499 250.28914928 C-66.90800733 250.30461327 -75.15389366 250.32569379 -83.39981079 250.36003113 C-90.58757996 250.38994788 -97.77528683 250.40929118 -104.96311653 250.41597825 C-108.76846967 250.41988667 -112.5736446 250.42906211 -116.37894058 250.45090294 C-119.96253278 250.47130413 -123.54587376 250.4775393 -127.12951851 250.47303581 C-129.06785922 250.47425133 -131.00617273 250.49037447 -132.94444275 250.50697327 C-139.84173515 250.48247309 -144.99284114 250.32690402 -150.2484436 245.37980652 C-150.96580688 244.48455261 -150.96580688 244.48455261 -151.69766235 243.57121277 C-152.18879517 242.97179871 -152.67992798 242.37238464 -153.1859436 241.75480652 C-156.58015163 237.16654485 -155.90092002 231.60647467 -155.38516235 226.13371277 C-152.89100269 220.96064088 -149.28182898 217.50903194 -144.08527851 215.04174232 C-141.10659993 214.04003424 -138.75912438 213.87262669 -135.62080383 213.85523987 C-133.89400642 213.83849464 -133.89400642 213.83849464 -132.13232422 213.82141113 C-130.87860016 213.81925095 -129.6248761 213.81709076 -128.3331604 213.81486511 C-126.99253233 213.80556165 -125.65191003 213.79539235 -124.31129456 213.78442383 C-120.67948728 213.75715678 -117.04771873 213.74198425 -113.4158361 213.7289958 C-109.61746522 213.7133508 -105.81917324 213.68656495 -102.02085876 213.66096497 C-94.83161362 213.61420139 -87.6423536 213.57744558 -80.45303422 213.54429209 C-72.26681002 213.50605358 -64.0806651 213.45664795 -55.89450777 213.40630794 C-39.05811084 213.30302407 -22.22168089 213.21522629 -5.38516235 213.13371277 C-5.38516235 203.56371277 -5.38516235 193.99371277 -5.38516235 184.13371277 C-8.96231079 184.20332214 -8.96231079 184.20332214 -12.61172485 184.27433777 C-14.93510818 184.30558045 -17.25846762 184.3298412 -19.5819397 184.35343933 C-21.1901201 184.37348904 -22.79822819 184.4007364 -24.40615845 184.43547058 C-26.72486255 184.4842854 -29.04259861 184.50674705 -31.36172485 184.52433777 C-32.07446564 184.54498291 -32.78720642 184.56562805 -33.52154541 184.5868988 C-38.63334698 184.58916913 -41.44037413 183.32019665 -45.38516235 180.13371277 C-49.98919917 175.01811631 -51.82869988 171.20670889 -51.62734985 164.37199402 C-50.98114132 158.39977644 -47.65283423 155.12817382 -43.29922485 151.43058777 C-38.65958856 148.28699746 -34.66043124 147.89276405 -29.1156311 147.93840027 C-28.43462845 147.94123016 -27.75362579 147.94406006 -27.05198669 147.94697571 C-24.8920278 147.95810752 -22.73249441 147.9831982 -20.57266235 148.00871277 C-19.10196525 148.01875166 -17.6312616 148.02787592 -16.16055298 148.03605652 C-12.56846311 148.05631647 -8.97728504 148.0954761 -5.38516235 148.13371277 C-5.38516235 139.55371277 -5.38516235 130.97371277 -5.38516235 122.13371277 C-10.68417603 122.16513367 -10.68417603 122.16513367 -16.09024048 122.19718933 C-27.76895116 122.26350148 -39.44768851 122.30786909 -51.12653351 122.34096146 C-58.20665608 122.36155785 -65.28659987 122.38962206 -72.36660767 122.43547058 C-79.20064485 122.47970504 -86.03449626 122.5028584 -92.8686676 122.51322174 C-95.47454245 122.52060611 -98.08040727 122.53502599 -100.686203 122.556633 C-104.33933373 122.58571663 -107.99169989 122.58966651 -111.64492798 122.58781433 C-113.25686539 122.60938599 -113.25686539 122.60938599 -114.90136719 122.63139343 C-122.30776268 122.5908251 -127.96655898 121.51339466 -133.4437561 116.09855652 C-134.1263147 115.09502136 -134.1263147 115.09502136 -134.82266235 114.07121277 C-135.29574829 113.39961121 -135.76883423 112.72800964 -136.2562561 112.03605652 C-138.69534025 107.92590434 -138.96680954 103.78689023 -138.38516235 99.13371277 C-136.49146708 92.92786803 -133.04670915 89.19436336 -127.38516235 86.13371277 C-124.46088949 85.15895515 -122.55339727 84.9979674 -119.50669861 84.97549438 C-118.50129028 84.96570557 -117.49588196 84.95591675 -116.46000671 84.9458313 C-115.35805466 84.94007584 -114.2561026 84.93432037 -113.12075806 84.9283905 C-111.95964508 84.91849091 -110.7985321 84.90859131 -109.60223389 84.89839172 C-105.75515804 84.86674376 -101.90806983 84.84200616 -98.0609436 84.81730652 C-95.39721752 84.79673984 -92.7334972 84.7757914 -90.06977844 84.7543335 C-83.76940268 84.70441987 -77.46900163 84.65947611 -71.16857642 84.61631113 C-63.99569917 84.56692739 -56.8228676 84.51201348 -49.65003455 84.45663154 C-34.89512049 84.34283192 -20.1401609 84.23598847 -5.38516235 84.13371277 C-5.38738297 83.09610306 -5.38960358 82.05849335 -5.39189148 80.98944092 C-5.41212263 71.23295006 -5.42713436 61.47646343 -5.43697453 51.7199564 C-5.44220342 46.70348807 -5.44930118 41.68703662 -5.46060181 36.670578 C-5.47143046 31.83361583 -5.47743914 26.99666993 -5.4800396 22.15969658 C-5.48189389 20.31002992 -5.48551457 18.46036419 -5.49089241 16.61070442 C-5.49810255 14.02924263 -5.49915331 11.44784895 -5.49868774 8.86637878 C-5.50228302 8.09386276 -5.5058783 7.32134674 -5.50958252 6.52542114 C-5.49678513 0.01113007 -5.49678513 0.01113007 0 0 Z M30.61483765 34.13371277 C30.61483765 50.96371277 30.61483765 67.79371277 30.61483765 85.13371277 C43.50841366 85.34350482 43.50841366 85.34350482 56.4024353 85.52165222 C58.02794663 85.55396023 59.65343722 85.5873365 61.27890015 85.62199402 C62.11187622 85.62823792 62.94485229 85.63448181 63.80307007 85.64091492 C68.85316184 85.76502352 72.14684274 86.55291994 76.61483765 89.13371277 C77.27483765 89.13371277 77.93483765 89.13371277 78.61483765 89.13371277 C79.30103796 90.45709909 79.96270226 91.79321224 80.61483765 93.13371277 C80.98608765 93.83496277 81.35733765 94.53621277 81.73983765 95.25871277 C83.40091808 100.71654847 83.35084962 106.08062675 81.42733765 111.44621277 C78.21543196 116.20869361 75.16749657 119.46468925 69.61483765 121.13371277 C66.6051562 121.39598925 63.61440002 121.36669709 60.5953064 121.32902527 C59.73673538 121.32619537 58.87816437 121.32336548 57.99357605 121.32044983 C55.2630189 121.30929347 52.53279494 121.28419736 49.80233765 121.25871277 C47.94622261 121.24867709 46.0901024 121.23955227 44.23397827 121.23136902 C39.69403442 121.21107423 35.15480713 121.17191728 30.61483765 121.13371277 C30.61483765 130.37371277 30.61483765 139.61371277 30.61483765 149.13371277 C38.48234894 149.01571852 38.48234894 149.01571852 46.34921265 148.8634491 C52.8403263 148.81457656 57.75874667 149.25366803 63.61483765 152.13371277 C67.59562502 156.2192577 69.89845244 160.14472202 69.98983765 165.88371277 C69.8828583 171.05692829 68.5916408 174.90726188 65.61483765 179.13371277 C61.52931135 182.97163141 57.64593175 183.27752427 52.1968689 183.45011902 C51.06740845 183.48822693 49.937948 183.52633484 48.77426147 183.56559753 C47.33977661 183.60870056 45.90529175 183.65180359 44.42733765 183.69621277 C39.86921265 183.84058777 35.31108765 183.98496277 30.61483765 184.13371277 C30.61483765 194.03371277 30.61483765 203.93371277 30.61483765 214.13371277 C37.6221814 214.1549823 37.6221814 214.1549823 44.77108765 214.17668152 C47.74251628 214.19675461 50.71379245 214.21828675 53.68515015 214.24504089 C58.39452015 214.28730623 63.10350339 214.3243613 67.81307983 214.32926941 C71.61303547 214.33356916 75.41212309 214.36216835 79.21180725 214.40714455 C80.6565087 214.42006646 82.10131431 214.42444611 83.54606628 214.41986656 C98.53570184 214.38344178 98.53570184 214.38344178 104.61483765 220.13371277 C108.41874257 224.62446159 109.2592295 228.85751131 109.0015564 234.70402527 C108.19307289 239.7835883 105.82719398 243.01006544 102.05233765 246.50871277 C98.05627585 249.17275397 94.91747415 249.27634428 90.21566772 249.33903503 C89.57149399 249.34893463 88.92732025 249.35883423 88.2636261 249.36903381 C86.13724425 249.40058743 84.01084007 249.42538182 81.8843689 249.45011902 C80.40891443 249.47069386 78.93346578 249.49169047 77.45802307 249.51309204 C73.57664714 249.56825802 69.69521849 249.61769139 65.81375122 249.66593933 C61.15557343 249.72503179 56.49749187 249.79122963 51.83939362 249.85623932 C44.76460046 249.95417999 37.68974526 250.04308299 30.61483765 250.13371277 C30.61483765 265.64371277 30.61483765 281.15371277 30.61483765 297.13371277 C45.22733025 297.07178733 45.22733025 297.07178733 59.83944702 296.97355652 C65.80811757 296.92539563 71.77660733 296.88128592 77.74545288 296.86271667 C82.56324677 296.8474583 87.38056437 296.8128521 92.19814491 296.76540375 C94.02668404 296.75068396 95.85529121 296.74267722 97.68388939 296.74182892 C113.14101775 296.72746022 127.46872533 295.14798785 139.57577515 284.39152527 C148.05720943 275.46564901 152.93661889 263.53615613 152.88226318 251.28016663 C152.8867943 250.51973372 152.89132541 249.75930081 152.89599383 248.97582448 C152.90859075 246.44359285 152.90702051 243.91157761 152.90536499 241.37931824 C152.91135333 239.55703456 152.91815958 237.73475342 152.92572021 235.91247559 C152.94335987 230.97207853 152.94807484 226.03175079 152.94935179 221.09132528 C152.9507755 218.0001221 152.95504937 214.90893641 152.96034622 211.81773758 C152.9788423 201.02005652 152.98701768 190.22242477 152.98544312 179.42472839 C152.98424299 169.38242084 153.0053211 159.34032865 153.03693044 149.29807556 C153.06314705 140.65915131 153.0738081 132.02029715 153.0725323 123.38133347 C153.07202409 118.22944 153.07762829 113.07773786 153.0988884 107.92588425 C153.11836074 103.07484636 153.11833411 98.22418048 153.10385513 93.37312889 C153.1017768 91.60153976 153.10640913 89.82992679 153.11857605 88.05837822 C153.22023666 72.21891789 151.00935821 59.11417017 139.7359314 47.13761902 C124.73945764 33.05002246 104.97221797 33.96893429 85.69296265 34.03605652 C84.09585617 34.03792628 82.49874911 34.03934754 80.90164185 34.04034424 C76.73921061 34.04412548 72.5768154 34.05391715 68.41439819 34.06504822 C63.39813989 34.07717697 58.38186941 34.08168553 53.36560059 34.08750153 C45.78198804 34.09713214 38.19845422 34.11631915 30.61483765 34.13371277 Z " fill="#22BADD" transform="translate(203.38516235351563,59.86628723144531)"/>
<path d="M0 0 C1.16802658 -0.00274933 2.33605316 -0.00549866 3.53947449 -0.0083313 C5.44811279 0.00245453 5.44811279 0.00245453 7.39530945 0.01345825 C8.75563549 0.01402271 10.11596215 0.01370514 11.47628784 0.01257324 C15.16187823 0.01200007 18.8473381 0.02374866 22.53289819 0.03772116 C26.38727164 0.05023437 30.24164818 0.05139948 34.09603882 0.05377197 C41.39159038 0.059985 48.68708192 0.07639343 55.98260707 0.09647095 C64.28969074 0.11883546 72.59677729 0.12982477 80.90388358 0.13986182 C97.98919501 0.16075981 115.07444803 0.19593235 132.15971375 0.24050903 C132.18436472 5.20673253 132.20255023 10.1729207 132.21464539 15.13919067 C132.21968564 16.82995219 132.22651779 18.52070932 132.2351532 20.2114563 C132.24723231 22.6365161 132.25294497 25.06151847 132.25737 27.48660278 C132.26253128 28.24702377 132.26769257 29.00744476 132.27301025 29.79090881 C132.27320612 31.60783474 132.22168651 33.42464031 132.15971375 35.24050903 C130.44317649 36.95704629 128.18466136 36.3740406 125.84082031 36.38095093 C124.68696335 36.38666107 123.53310638 36.39237122 122.34428406 36.39825439 C121.06690369 36.39937225 119.78952332 36.40049011 118.47343445 36.40164185 C117.12343204 36.40626791 115.77343095 36.41129228 114.4234314 36.41668701 C110.74551961 36.42983748 107.06762609 36.43626164 103.38969445 36.44069767 C101.09224402 36.44362543 98.79479861 36.44772977 96.49735069 36.45220184 C89.31056373 36.46588659 82.12378822 36.47554724 74.93698913 36.47940373 C66.63906296 36.48388063 58.34130184 36.50140719 50.04342586 36.53040433 C43.6323212 36.5520303 37.22126293 36.56210858 30.81012219 36.56344485 C26.98020575 36.56449266 23.15044424 36.57039448 19.32056618 36.58826447 C15.71478374 36.60476004 12.1092724 36.60689358 8.50346565 36.59812546 C6.55321913 36.59698944 4.60298155 36.61069723 2.65278625 36.62487793 C-4.26026726 36.59191449 -9.43599381 36.4449688 -14.7035675 31.48660278 C-15.18180969 30.88976685 -15.66005188 30.29293091 -16.15278625 29.67800903 C-16.64391907 29.07859497 -17.13505188 28.47918091 -17.6410675 27.86160278 C-21.03527553 23.27334112 -20.35604392 17.71327093 -19.84028625 12.24050903 C-17.34591687 7.06700216 -13.73703159 3.62170399 -8.5451479 1.14616585 C-5.53318719 0.13768442 -3.1724502 -0.00577334 0 0 Z " fill="#F9D21E" transform="translate(67.84028625488281,273.7594909667969)"/>
<path d="M0 0 C1.02223663 -0.00137466 2.04447327 -0.00274933 3.09768677 -0.00416565 C4.2183403 -0.00057037 5.33899384 0.0030249 6.49360657 0.00672913 C7.67422668 0.0065831 8.8548468 0.00643707 10.07124329 0.00628662 C13.30858294 0.00686428 16.54587947 0.01188269 19.78321052 0.01886058 C23.16647641 0.02510804 26.54974314 0.02569902 29.93301392 0.02688599 C36.33967068 0.02999519 42.74631039 0.03820305 49.15295964 0.04823548 C56.44672121 0.05940936 63.74048358 0.06491028 71.03425157 0.06993091 C86.03804828 0.08038599 101.04182285 0.09872638 116.04560852 0.12025452 C116.04560852 12.00025452 116.04560852 23.88025452 116.04560852 36.12025452 C113.62550069 37.33030843 112.0837744 37.25395375 109.37919617 37.26742554 C108.39513794 37.27458084 107.41107971 37.28173615 106.39720154 37.28910828 C105.3135733 37.29179718 104.22994507 37.29448608 103.11347961 37.29725647 C101.97511658 37.30382767 100.83675354 37.31039886 99.66389465 37.31716919 C95.88227783 37.33694044 92.10070082 37.34857449 88.31904602 37.35853577 C86.38401152 37.36464906 86.38401152 37.36464906 84.40988541 37.37088585 C78.28456315 37.38960994 72.15926089 37.40417029 66.03391588 37.41249782 C58.97263085 37.42225684 51.91166041 37.44853856 44.85048616 37.48899871 C38.72838515 37.52286839 32.60641571 37.53464887 26.48422623 37.53870201 C23.8839416 37.54357276 21.28366044 37.55520052 18.68343735 37.57374001 C15.04007257 37.59809826 11.39752597 37.59717161 7.75410461 37.59022522 C6.68262177 37.60303528 5.61113892 37.61584534 4.50718689 37.62904358 C-2.88581184 37.57775806 -8.54632423 36.48952024 -14.01298523 31.08509827 C-14.46802429 30.41607483 -14.92306335 29.74705139 -15.39189148 29.05775452 C-15.86497742 28.38615295 -16.33806335 27.71455139 -16.82548523 27.02259827 C-19.26456938 22.91244608 -19.53603866 18.77343197 -18.95439148 14.12025452 C-17.06069621 7.91440978 -13.61593828 4.18090511 -7.95439148 1.12025452 C-4.99395975 0.13344394 -3.08610307 -0.00319803 0 0 Z " fill="#F78042" transform="translate(83.95439147949219,144.87974548339844)"/>
<path d="M0 0 C0.88666855 -0.0049649 1.7733371 -0.00992981 2.68687439 -0.01504517 C5.61832457 -0.02964241 8.54972063 -0.03646473 11.48120117 -0.04199219 C13.52137758 -0.04774563 15.56155397 -0.05350334 17.60173035 -0.05926514 C21.87967175 -0.06976818 26.1575944 -0.07561541 30.43554688 -0.07910156 C35.90982939 -0.08458488 41.38386302 -0.1086125 46.85806751 -0.13707352 C51.07289854 -0.15572214 55.28766988 -0.16090669 59.50253868 -0.16243744 C61.52030485 -0.16545945 63.53807009 -0.17347269 65.55579567 -0.18662262 C68.3824404 -0.20372953 71.20848037 -0.20179149 74.03515625 -0.1953125 C74.86397308 -0.20452728 75.69278992 -0.21374207 76.54672241 -0.22323608 C83.13636906 -0.17606207 87.79927902 1.13253137 92.96166992 5.47363281 C97.03075224 10.33392558 98.86765584 14.45869096 98.62182617 20.78613281 C97.87300911 25.1221402 96.09495391 28.84694044 93.21166992 32.16113281 C87.53725387 36.11635703 83.35768345 36.7414997 76.53198242 36.67871094 C75.58635437 36.68572021 74.64072632 36.69272949 73.66644287 36.69995117 C70.55621541 36.71748424 67.44690584 36.70592479 64.33666992 36.69238281 C62.166258 36.69507907 59.99584725 36.6989626 57.82543945 36.70397949 C53.28284167 36.70986821 48.74055911 36.70133154 44.19799805 36.68261719 C38.38399157 36.65982833 32.57072378 36.67295473 26.75674438 36.69690704 C22.27679916 36.71138178 17.7970282 36.70675127 13.31707764 36.69639587 C11.1737255 36.69373324 9.0303574 36.696982 6.88702393 36.70631409 C3.88804393 36.71650702 0.89024944 36.70093962 -2.10864258 36.67871094 C-2.98885071 36.68680786 -3.86905884 36.69490479 -4.77593994 36.70324707 C-11.31882701 36.61369515 -15.78113727 35.12867033 -20.56567383 30.40722656 C-24.14986536 24.81974954 -24.97051242 19.71080435 -23.78833008 13.16113281 C-21.56172962 7.50971893 -18.17120419 4.02436372 -12.78833008 1.16113281 C-8.57113654 -0.12017891 -4.37023031 0.00585143 0 0 Z " fill="#7FC535" transform="translate(45.788330078125,207.8388671875)"/>
<path d="M0 0 C16.15048056 -0.20054405 16.15048056 -0.20054405 23.0703125 -0.24414062 C27.77991131 -0.27395353 32.489021 -0.30910238 37.19824219 -0.37719727 C40.99787226 -0.43179153 44.79697738 -0.46147748 48.5969696 -0.47438622 C50.04180661 -0.48357737 51.48661703 -0.50152556 52.93122864 -0.52865028 C60.9979923 -0.67399982 67.75580431 -0.72819577 74 5 C78.57793625 9.93008519 79.3630869 13.88853364 79.27734375 20.43359375 C78.69884722 25.78672366 75.93974247 29.37179025 71.9375 32.875 C67.65823238 35.97064041 64.76110837 36.12335449 59.60083008 36.11352539 C58.63456947 36.11374443 58.63456947 36.11374443 57.64878845 36.1139679 C55.52233498 36.11327195 53.3959694 36.10549448 51.26953125 36.09765625 C49.79408313 36.09579094 48.31863439 36.09436757 46.84318542 36.09336853 C42.96174405 36.08955226 39.08034015 36.07972956 35.19891357 36.06866455 C30.54080225 36.05663178 25.88267839 36.05204395 21.22455597 36.04621124 C14.14967792 36.03651734 7.07488209 36.01735458 0 36 C0 24.12 0 12.24 0 0 Z " fill="#FAD21D" transform="translate(234,274)"/>
<path d="M0 0 C5.55007795 -0.09938156 11.09963018 -0.1717096 16.65039062 -0.21972656 C18.53589916 -0.23975767 20.42134623 -0.26699073 22.30664062 -0.30175781 C25.02749862 -0.35065272 27.74753056 -0.37305382 30.46875 -0.390625 C31.30241089 -0.41127014 32.13607178 -0.43191528 32.99499512 -0.45318604 C38.7485064 -0.45535826 43.23866885 0.65764469 48 4 C52.87360969 10.1232532 53.66584617 15.39032947 53 23 C50.93560261 28.47065309 48.16099488 32.8607594 42.91943359 35.62402344 C38.62434988 37.37164271 34.6247018 37.39961798 30.0390625 37.328125 C29.2078891 37.32625183 28.3767157 37.32437866 27.52035522 37.32244873 C25.7773635 37.31576534 24.03438582 37.30192552 22.29150391 37.28125 C19.61216434 37.24984957 16.93341233 37.24025004 14.25390625 37.234375 C12.55728442 37.22521391 10.86066861 37.21484101 9.1640625 37.203125 C7.95793808 37.19675018 7.95793808 37.19675018 6.72744751 37.19024658 C1.11722249 37.11722249 1.11722249 37.11722249 0 36 C-0.08855161 33.3337397 -0.11524673 30.69352886 -0.09765625 28.02734375 C-0.0962413 27.22970108 -0.09482635 26.43205841 -0.09336853 25.61024475 C-0.08775316 23.05262565 -0.07519812 20.49509282 -0.0625 17.9375 C-0.05748698 16.20768355 -0.05292373 14.47786574 -0.04882812 12.74804688 C-0.03777875 8.49866447 -0.02050386 4.24934688 0 0 Z " fill="#F88041" transform="translate(234,145)"/>
<path d="M0 0 C0.70082703 0.00045822 1.40165405 0.00091644 2.12371826 0.00138855 C3.59616807 0.00439619 5.06861513 0.01223765 6.54101562 0.0246582 C8.80349882 0.04302251 11.06557473 0.04516695 13.328125 0.04492188 C24.39929393 0.08288768 24.39929393 0.08288768 25.546875 1.23046875 C25.64774712 3.73971028 25.68659532 6.22083259 25.6796875 8.73046875 C25.68064423 9.48134766 25.68160095 10.23222656 25.68258667 11.00585938 C25.68326838 12.59635502 25.68141472 14.18685342 25.67724609 15.77734375 C25.67189767 18.2201153 25.67719134 20.66270296 25.68359375 23.10546875 C25.68293297 24.64713582 25.6816518 26.18880278 25.6796875 27.73046875 C25.68171173 28.46587891 25.68373596 29.20128906 25.68582153 29.95898438 C25.66182661 35.11551714 25.66182661 35.11551714 24.546875 36.23046875 C22.02342579 36.36870076 19.52931082 36.44359489 17.00390625 36.46875 C16.24268967 36.47682175 15.48147308 36.48489349 14.69718933 36.49320984 C13.08062021 36.5070696 11.46402158 36.51778326 9.84741211 36.52563477 C7.38663139 36.54277886 4.92721838 36.58663652 2.46679688 36.63085938 C0.89584321 36.64099223 -0.67512188 36.64950648 -2.24609375 36.65625 C-2.97757126 36.67375809 -3.70904877 36.69126617 -4.46269226 36.70930481 C-9.62029416 36.68765785 -12.47341238 35.45587367 -16.453125 32.23046875 C-21.05716182 27.11487229 -22.89666253 23.30346487 -22.6953125 16.46875 C-22.04910397 10.49653243 -18.72079688 7.2249298 -14.3671875 3.52734375 C-9.67775637 0.3500149 -5.60379471 -0.01760246 0 0 Z " fill="#7EC536" transform="translate(174.453125,207.76953125)"/>
<path d="M0 0 C1.07314453 -0.020625 2.14628906 -0.04125 3.25195312 -0.0625 C9.89869835 -0.09506213 16.73668796 -0.11973376 21.95483398 4.6315918 C26.49102305 9.83014114 27.90364829 13.88009726 27.75390625 20.6484375 C27.08980856 26.10879629 24.81774571 29.93708335 20.875 33.6875 C16.82579632 36.28314338 13.7333473 36.36898573 9.01953125 36.34765625 C7.76591797 36.34443359 6.51230469 36.34121094 5.22070312 36.33789062 C3.91037109 36.32951172 2.60003906 36.32113281 1.25 36.3125 C-0.08528481 36.30748317 -1.42057141 36.30292059 -2.75585938 36.29882812 C-6.02478473 36.28702695 -9.29361991 36.27056297 -12.5625 36.25 C-12.58715098 31.28377651 -12.60533649 26.31758834 -12.61743164 21.35131836 C-12.6224719 19.66055684 -12.62930405 17.96979971 -12.63793945 16.27905273 C-12.65001857 13.85399293 -12.65573123 11.42899056 -12.66015625 9.00390625 C-12.66531754 8.24348526 -12.67047882 7.48306427 -12.67579651 6.69960022 C-12.67599238 4.8826743 -12.62447277 3.06586873 -12.5625 1.25 C-10.05966175 -1.25283825 -3.35857061 0.01574023 0 0 Z " fill="#7FC534" transform="translate(246.5625,207.75)"/>
<path d="M0 0 C0.33 0 0.66 0 1 0 C1 107.58 1 215.16 1 326 C37.3 325.67 73.6 325.34 111 325 C112.65 325.33 114.3 325.66 116 326 C116 326.66 116 327.32 116 328 C113.00743152 328.86505797 110.34658166 329.1255677 107.23579407 329.12698364 C106.28094116 329.12980347 105.32608826 329.13262329 104.34230042 329.13552856 C103.30161911 329.13350433 102.26093781 329.1314801 101.1887207 329.12939453 C99.53702377 329.13202301 99.53702377 329.13202301 97.85195923 329.13470459 C94.20988391 329.13910849 90.56785707 329.13619083 86.92578125 329.1328125 C84.40040579 329.13348581 81.87503039 329.13445607 79.34965515 329.13571167 C74.05788496 329.13718654 68.76613221 329.13513542 63.47436523 329.13037109 C57.34971289 329.12492071 51.22509378 329.12669816 45.10044223 329.1321975 C39.21218863 329.13727353 33.3239454 329.13674774 27.43568993 329.13381577 C24.92732933 329.13314645 22.4189679 329.13397506 19.91060829 329.13629532 C16.41474748 329.13881986 12.91895164 329.13498446 9.4230957 329.12939453 C8.37634171 329.13141876 7.32958771 329.13344299 6.25111389 329.13552856 C4.83152374 329.13129883 4.83152374 329.13129883 3.383255 329.12698364 C2.55607121 329.12660662 1.72888742 329.12622959 0.87663746 329.12584114 C-1 329 -1 329 -2 328 C-2.10033866 325.51046303 -2.13617943 323.04865047 -2.12939453 320.55859375 C-2.13202301 319.39035568 -2.13202301 319.39035568 -2.13470459 318.19851685 C-2.13912349 315.61148889 -2.13618499 313.02452871 -2.1328125 310.4375 C-2.13348553 308.64770494 -2.13445554 306.85790998 -2.13571167 305.06811523 C-2.13718869 301.31200289 -2.13503394 297.55591428 -2.13037109 293.79980469 C-2.1246738 288.97399507 -2.12795278 284.14824105 -2.13394356 279.32243347 C-2.13754905 275.62511777 -2.13641064 271.92781536 -2.13381577 268.23049927 C-2.13314646 266.45061232 -2.13397503 264.67072418 -2.13629532 262.89083862 C-2.13882165 260.40766178 -2.13498154 257.92457626 -2.12939453 255.44140625 C-2.13141876 254.69851349 -2.13344299 253.95562073 -2.13552856 253.19021606 C-2.11426262 248.11426262 -2.11426262 248.11426262 -1 247 C-0.89908525 244.41810554 -0.86028501 241.863535 -0.8671875 239.28125 C-0.86623077 238.50817505 -0.86527405 237.7351001 -0.86428833 236.93859863 C-0.86360659 235.30102456 -0.86546043 233.66344781 -0.86962891 232.02587891 C-0.87497729 229.51068079 -0.86968374 226.99566127 -0.86328125 224.48046875 C-0.86394203 222.89322877 -0.8652232 221.3059889 -0.8671875 219.71875 C-0.86516327 218.96146606 -0.86313904 218.20418213 -0.86105347 217.4239502 C-0.55546316 213.91984437 -0.55546316 213.91984437 -2 211 C-2.10003289 208.86646826 -2.13081048 206.72962458 -2.1328125 204.59375 C-2.13410156 203.29308594 -2.13539063 201.99242187 -2.13671875 200.65234375 C-2.13462402 199.97155762 -2.1325293 199.29077148 -2.13037109 198.58935547 C-2.1250224 196.50871485 -2.1303168 194.42829011 -2.13671875 192.34765625 C-2.13542969 191.04699219 -2.13414062 189.74632812 -2.1328125 188.40625 C-2.13168457 187.20291016 -2.13055664 185.99957031 -2.12939453 184.75976562 C-2 182 -2 182 -1 181 C-0.89912788 178.49075847 -0.86027968 176.00963616 -0.8671875 173.5 C-0.86623077 172.74912109 -0.86527405 171.99824219 -0.86428833 171.22460938 C-0.86360662 169.63411373 -0.86546028 168.04361533 -0.86962891 166.453125 C-0.87497733 164.01035345 -0.86968366 161.56776579 -0.86328125 159.125 C-0.86394203 157.58333293 -0.8652232 156.04166597 -0.8671875 154.5 C-0.86516327 153.76458984 -0.86313904 153.02917969 -0.86105347 152.27148438 C-0.56943487 148.84753658 -0.56943487 148.84753658 -2 146 C-2.08758003 144.00035018 -2.10696576 141.9976389 -2.09765625 139.99609375 C-2.09443359 138.78115234 -2.09121094 137.56621094 -2.08789062 136.31445312 C-2.07951172 135.03505859 -2.07113281 133.75566406 -2.0625 132.4375 C-2.05798828 131.15423828 -2.05347656 129.87097656 -2.04882812 128.54882812 C-2.03699545 125.36583978 -2.02051068 122.18294238 -2 119 C-1.34 119 -0.68 119 0 119 C0 79.73 0 40.46 0 0 Z " fill="#1DC2EE" transform="translate(200,62)"/>
<path d="M0 0 C0.33 0 0.66 0 1 0 C1 26.4 1 52.8 1 80 C34.33 80 67.66 80 102 80 C102.33 80.66 102.66 81.32 103 82 C89.58774207 82.0231207 76.17548883 82.04091369 62.76321507 82.05181217 C56.53606528 82.0570416 50.30892908 82.06414033 44.08178711 82.07543945 C38.07773135 82.08626621 32.07368871 82.09227638 26.06962395 82.09487724 C23.7733839 82.09673188 21.47714461 82.10035321 19.18091011 82.10573006 C15.97679186 82.11293768 12.7727285 82.11399106 9.56860352 82.11352539 C8.12930733 82.1189183 8.12930733 82.1189183 6.66093445 82.12442017 C5.79290192 82.1230455 4.92486938 82.12167084 4.03053284 82.12025452 C2.8925794 82.12163721 2.8925794 82.12163721 1.731637 82.12304783 C0 82 0 82 -1 81 C-1.10033866 78.51046303 -1.13617943 76.04865047 -1.12939453 73.55859375 C-1.13114685 72.77976837 -1.13289917 72.00094299 -1.13470459 71.19851685 C-1.13912349 68.61148889 -1.13618499 66.02452871 -1.1328125 63.4375 C-1.13348553 61.64770494 -1.13445554 59.85790998 -1.13571167 58.06811523 C-1.13718869 54.31200289 -1.13503394 50.55591428 -1.13037109 46.79980469 C-1.1246738 41.97399507 -1.12795278 37.14824105 -1.13394356 32.32243347 C-1.13754905 28.62511777 -1.13641064 24.92781536 -1.13381577 21.23049927 C-1.13314646 19.45061232 -1.13397503 17.67072418 -1.13629532 15.89083862 C-1.13882165 13.40766178 -1.13498154 10.92457626 -1.12939453 8.44140625 C-1.13141876 7.69851349 -1.13344299 6.95562073 -1.13552856 6.19021606 C-1.11426262 1.11426262 -1.11426262 1.11426262 0 0 Z " fill="#21B9E1" transform="translate(199,309)"/>
<path d="M0 0 C0.33 0 0.66 0 1 0 C1 26.07 1 52.14 1 79 C12.82392578 78.87431641 12.82392578 78.87431641 24.88671875 78.74609375 C29.87694878 78.695387 34.8671781 78.64498854 39.85742188 78.59570312 C47.78022695 78.51742525 55.70300898 78.43799884 63.62573242 78.35180664 C70.01231244 78.28239763 76.3989252 78.218078 82.78559303 78.15730476 C85.22368039 78.13320688 87.66175026 78.10726714 90.0997982 78.07946587 C93.51140991 78.04087583 96.92302477 78.00880174 100.3347168 77.97827148 C101.34532166 77.96532547 102.35592651 77.95237946 103.39715576 77.93904114 C104.32958603 77.93200165 105.2620163 77.92496216 106.22270203 77.91770935 C107.02927089 77.90941321 107.83583975 77.90111708 108.66685009 77.89256954 C111.19369563 78.00891876 113.53508842 78.44591265 116 79 C116 79.66 116 80.32 116 81 C112.87645029 81.91740621 110.06313562 82.13460306 106.8125 82.125 C105.93207031 82.12757813 105.05164063 82.13015625 104.14453125 82.1328125 C102 82 102 82 101 81 C97.86510797 80.87457722 94.75120163 80.81386331 91.61499023 80.79467773 C90.13710526 80.77982834 90.13710526 80.77982834 88.62936401 80.76467896 C85.3557988 80.73296006 82.08221905 80.70826563 78.80859375 80.68359375 C76.54557405 80.66303318 74.28255827 80.64203696 72.01954651 80.62062073 C66.05025395 80.56530734 60.08092621 80.51593907 54.11157227 80.46777344 C46.95632307 80.40881597 39.80113846 80.34253724 32.64594269 80.27747345 C21.76400109 80.17934743 10.88201893 80.09057108 0 80 C0 53.6 0 27.2 0 0 Z " fill="#25CCF2" transform="translate(200,309)"/>
<path d="M0 0 C0.33 0 0.66 0 1 0 C1.09335833 21.98300985 1.16393746 43.96598712 1.20724869 65.94915485 C1.22789157 76.15586783 1.25604508 86.36245778 1.30175781 96.5690918 C1.34157281 105.46311704 1.36742025 114.35705321 1.37635398 123.25116509 C1.3815778 127.96245516 1.3938913 132.67349034 1.42292023 137.38469887 C1.45000512 141.81617216 1.45845911 146.2472848 1.45243073 150.67883301 C1.45353408 152.30788824 1.46152925 153.93695513 1.4768219 155.56593895 C1.49664249 157.78552111 1.49196963 160.00373084 1.48101807 162.2233429 C1.48470524 163.46684163 1.48839241 164.71034037 1.49219131 165.99152088 C1 169 1 169 -1.03006363 170.92354107 C-1.68014263 171.27877252 -2.33022163 171.63400396 -3 172 C-3 170.02 -3 168.04 -3 166 C-2.34 165.67 -1.68 165.34 -1 165 C-0.67 110.55 -0.34 56.1 0 0 Z " fill="#24C4E9" transform="translate(359,140)"/>
<path d="M0 0 C0 0.66 0 1.32 0 2 C-3.15506142 2.93619813 -5.96586502 3.1057123 -9.25 3.0625 C-10.14203125 3.05347656 -11.0340625 3.04445313 -11.953125 3.03515625 C-12.62859375 3.02355469 -13.3040625 3.01195312 -14 3 C-14.33 2.34 -14.66 1.68 -15 1 C-9.69276568 -0.42705634 -5.46108889 -1.4002792 0 0 Z " fill="#18CFE9" transform="translate(316,388)"/>
<path d="M0 0 C-1 3 -1 3 -3 4 C-4.99960012 4.039992 -7.00047242 4.04346799 -9 4 C-9 3.34 -9 2.68 -9 2 C-10.65 2 -12.3 2 -14 2 C-14 1.67 -14 1.34 -14 1 C-9.27616037 0.34843591 -4.78025483 -0.11950637 0 0 Z " fill="#22C6E7" transform="translate(325,386)"/>
<path d="M0 0 C0.66 1.32 1.32 2.64 2 4 C0.68 4.99 -0.64 5.98 -2 7 C-2 5.02 -2 3.04 -2 1 C-1.34 0.67 -0.68 0.34 0 0 Z " fill="#17CDEA" transform="translate(358,305)"/>
<path d="M0 0 C0.33 0.66 0.66 1.32 1 2 C1.66 2 2.32 2 3 2 C2.67 3.65 2.34 5.3 2 7 C0.68 5.35 -0.64 3.7 -2 2 C-1.34 1.34 -0.68 0.68 0 0 Z " fill="#1CB5E5" transform="translate(349,111)"/>
</svg>
